<svg xmlns="http://www.w3.org/2000/svg" width="741" height="155" viewBox="0 0 741 155">
  <rect width="100%" height="100%" fill="#0d1117" rx="8"/>
  <text x="36" y="18" fill="#e6edf3" font-size="12" font-weight="600" font-family="monospace">🚀 Platform-System · 139 org commits in the last year</text>
  <text x="49" y="34" fill="#8b949e" font-size="10" font-family="monospace">Apr</text><text x="75" y="34" fill="#8b949e" font-size="10" font-family="monospace">May</text><text x="127" y="34" fill="#8b949e" font-size="10" font-family="monospace">Jun</text><text x="192" y="34" fill="#8b949e" font-size="10" font-family="monospace">Jul</text><text x="244" y="34" fill="#8b949e" font-size="10" font-family="monospace">Aug</text><text x="309" y="34" fill="#8b949e" font-size="10" font-family="monospace">Sep</text><text x="361" y="34" fill="#8b949e" font-size="10" font-family="monospace">Oct</text><text x="413" y="34" fill="#8b949e" font-size="10" font-family="monospace">Nov</text><text x="478" y="34" fill="#8b949e" font-size="10" font-family="monospace">Dec</text><text x="530" y="34" fill="#8b949e" font-size="10" font-family="monospace">Jan</text><text x="582" y="34" fill="#8b949e" font-size="10" font-family="monospace">Feb</text><text x="634" y="34" fill="#8b949e" font-size="10" font-family="monospace">Mar</text><text x="699" y="34" fill="#8b949e" font-size="10" font-family="monospace">Apr</text>
  <text x="30" y="61.8" fill="#8b949e" font-size="9" font-family="monospace" text-anchor="end">Mon</text><text x="30" y="87.8" fill="#8b949e" font-size="9" font-family="monospace" text-anchor="end">Wed</text><text x="30" y="113.8" fill="#8b949e" font-size="9" font-family="monospace" text-anchor="end">Fri</text>
  <rect x="36" y="105" width="11" height="11" rx="2" fill="#161b22"><title>2025-04-18: 0 commits</title></rect><rect x="36" y="118" width="11" height="11" rx="2" fill="#161b22"><title>2025-04-19: 0 commits</title></rect><rect x="49" y="40" width="11" height="11" rx="2" fill="#161b22"><title>2025-04-20: 0 commits</title></rect><rect x="49" y="53" width="11" height="11" rx="2" fill="#161b22"><title>2025-04-21: 0 commits</title></rect><rect x="49" y="66" width="11" height="11" rx="2" fill="#161b22"><title>2025-04-22: 0 commits</title></rect><rect x="49" y="79" width="11" height="11" rx="2" fill="#161b22"><title>2025-04-23: 0 commits</title></rect><rect x="49" y="92" width="11" height="11" rx="2" fill="#161b22"><title>2025-04-24: 0 commits</title></rect><rect x="49" y="105" width="11" height="11" rx="2" fill="#161b22"><title>2025-04-25: 0 commits</title></rect><rect x="49" y="118" width="11" height="11" rx="2" fill="#161b22"><title>2025-04-26: 0 commits</title></rect><rect x="62" y="40" width="11" height="11" rx="2" fill="#161b22"><title>2025-04-27: 0 commits</title></rect><rect x="62" y="53" width="11" height="11" rx="2" fill="#161b22"><title>2025-04-28: 0 commits</title></rect><rect x="62" y="66" width="11" height="11" rx="2" fill="#161b22"><title>2025-04-29: 0 commits</title></rect><rect x="62" y="79" width="11" height="11" rx="2" fill="#161b22"><title>2025-04-30: 0 commits</title></rect><rect x="62" y="92" width="11" height="11" rx="2" fill="#161b22"><title>2025-05-01: 0 commits</title></rect><rect x="62" y="105" width="11" height="11" rx="2" fill="#161b22"><title>2025-05-02: 0 commits</title></rect><rect x="62" y="118" width="11" height="11" rx="2" fill="#161b22"><title>2025-05-03: 0 commits</title></rect><rect x="75" y="40" width="11" height="11" rx="2" fill="#161b22"><title>2025-05-04: 0 commits</title></rect><rect x="75" y="53" width="11" height="11" rx="2" fill="#161b22"><title>2025-05-05: 0 commits</title></rect><rect x="75" y="66" width="11" height="11" rx="2" fill="#161b22"><title>2025-05-06: 0 commits</title></rect><rect x="75" y="79" width="11" height="11" rx="2" fill="#161b22"><title>2025-05-07: 0 commits</title></rect><rect x="75" y="92" width="11" height="11" rx="2" fill="#161b22"><title>2025-05-08: 0 commits</title></rect><rect x="75" y="105" width="11" height="11" rx="2" fill="#161b22"><title>2025-05-09: 0 commits</title></rect><rect x="75" y="118" width="11" height="11" rx="2" fill="#161b22"><title>2025-05-10: 0 commits</title></rect><rect x="88" y="40" width="11" height="11" rx="2" fill="#161b22"><title>2025-05-11: 0 commits</title></rect><rect x="88" y="53" width="11" height="11" rx="2" fill="#161b22"><title>2025-05-12: 0 commits</title></rect><rect x="88" y="66" width="11" height="11" rx="2" fill="#161b22"><title>2025-05-13: 0 commits</title></rect><rect x="88" y="79" width="11" height="11" rx="2" fill="#161b22"><title>2025-05-14: 0 commits</title></rect><rect x="88" y="92" width="11" height="11" rx="2" fill="#161b22"><title>2025-05-15: 0 commits</title></rect><rect x="88" y="105" width="11" height="11" rx="2" fill="#161b22"><title>2025-05-16: 0 commits</title></rect><rect x="88" y="118" width="11" height="11" rx="2" fill="#161b22"><title>2025-05-17: 0 commits</title></rect><rect x="101" y="40" width="11" height="11" rx="2" fill="#161b22"><title>2025-05-18: 0 commits</title></rect><rect x="101" y="53" width="11" height="11" rx="2" fill="#161b22"><title>2025-05-19: 0 commits</title></rect><rect x="101" y="66" width="11" height="11" rx="2" fill="#161b22"><title>2025-05-20: 0 commits</title></rect><rect x="101" y="79" width="11" height="11" rx="2" fill="#161b22"><title>2025-05-21: 0 commits</title></rect><rect x="101" y="92" width="11" height="11" rx="2" fill="#161b22"><title>2025-05-22: 0 commits</title></rect><rect x="101" y="105" width="11" height="11" rx="2" fill="#161b22"><title>2025-05-23: 0 commits</title></rect><rect x="101" y="118" width="11" height="11" rx="2" fill="#161b22"><title>2025-05-24: 0 commits</title></rect><rect x="114" y="40" width="11" height="11" rx="2" fill="#161b22"><title>2025-05-25: 0 commits</title></rect><rect x="114" y="53" width="11" height="11" rx="2" fill="#161b22"><title>2025-05-26: 0 commits</title></rect><rect x="114" y="66" width="11" height="11" rx="2" fill="#161b22"><title>2025-05-27: 0 commits</title></rect><rect x="114" y="79" width="11" height="11" rx="2" fill="#161b22"><title>2025-05-28: 0 commits</title></rect><rect x="114" y="92" width="11" height="11" rx="2" fill="#161b22"><title>2025-05-29: 0 commits</title></rect><rect x="114" y="105" width="11" height="11" rx="2" fill="#161b22"><title>2025-05-30: 0 commits</title></rect><rect x="114" y="118" width="11" height="11" rx="2" fill="#161b22"><title>2025-05-31: 0 commits</title></rect><rect x="127" y="40" width="11" height="11" rx="2" fill="#161b22"><title>2025-06-01: 0 commits</title></rect><rect x="127" y="53" width="11" height="11" rx="2" fill="#161b22"><title>2025-06-02: 0 commits</title></rect><rect x="127" y="66" width="11" height="11" rx="2" fill="#161b22"><title>2025-06-03: 0 commits</title></rect><rect x="127" y="79" width="11" height="11" rx="2" fill="#161b22"><title>2025-06-04: 0 commits</title></rect><rect x="127" y="92" width="11" height="11" rx="2" fill="#161b22"><title>2025-06-05: 0 commits</title></rect><rect x="127" y="105" width="11" height="11" rx="2" fill="#161b22"><title>2025-06-06: 0 commits</title></rect><rect x="127" y="118" width="11" height="11" rx="2" fill="#161b22"><title>2025-06-07: 0 commits</title></rect><rect x="140" y="40" width="11" height="11" rx="2" fill="#161b22"><title>2025-06-08: 0 commits</title></rect><rect x="140" y="53" width="11" height="11" rx="2" fill="#161b22"><title>2025-06-09: 0 commits</title></rect><rect x="140" y="66" width="11" height="11" rx="2" fill="#161b22"><title>2025-06-10: 0 commits</title></rect><rect x="140" y="79" width="11" height="11" rx="2" fill="#161b22"><title>2025-06-11: 0 commits</title></rect><rect x="140" y="92" width="11" height="11" rx="2" fill="#161b22"><title>2025-06-12: 0 commits</title></rect><rect x="140" y="105" width="11" height="11" rx="2" fill="#161b22"><title>2025-06-13: 0 commits</title></rect><rect x="140" y="118" width="11" height="11" rx="2" fill="#161b22"><title>2025-06-14: 0 commits</title></rect><rect x="153" y="40" width="11" height="11" rx="2" fill="#161b22"><title>2025-06-15: 0 commits</title></rect><rect x="153" y="53" width="11" height="11" rx="2" fill="#161b22"><title>2025-06-16: 0 commits</title></rect><rect x="153" y="66" width="11" height="11" rx="2" fill="#161b22"><title>2025-06-17: 0 commits</title></rect><rect x="153" y="79" width="11" height="11" rx="2" fill="#161b22"><title>2025-06-18: 0 commits</title></rect><rect x="153" y="92" width="11" height="11" rx="2" fill="#161b22"><title>2025-06-19: 0 commits</title></rect><rect x="153" y="105" width="11" height="11" rx="2" fill="#161b22"><title>2025-06-20: 0 commits</title></rect><rect x="153" y="118" width="11" height="11" rx="2" fill="#161b22"><title>2025-06-21: 0 commits</title></rect><rect x="166" y="40" width="11" height="11" rx="2" fill="#161b22"><title>2025-06-22: 0 commits</title></rect><rect x="166" y="53" width="11" height="11" rx="2" fill="#161b22"><title>2025-06-23: 0 commits</title></rect><rect x="166" y="66" width="11" height="11" rx="2" fill="#161b22"><title>2025-06-24: 0 commits</title></rect><rect x="166" y="79" width="11" height="11" rx="2" fill="#161b22"><title>2025-06-25: 0 commits</title></rect><rect x="166" y="92" width="11" height="11" rx="2" fill="#161b22"><title>2025-06-26: 0 commits</title></rect><rect x="166" y="105" width="11" height="11" rx="2" fill="#161b22"><title>2025-06-27: 0 commits</title></rect><rect x="166" y="118" width="11" height="11" rx="2" fill="#161b22"><title>2025-06-28: 0 commits</title></rect><rect x="179" y="40" width="11" height="11" rx="2" fill="#161b22"><title>2025-06-29: 0 commits</title></rect><rect x="179" y="53" width="11" height="11" rx="2" fill="#161b22"><title>2025-06-30: 0 commits</title></rect><rect x="179" y="66" width="11" height="11" rx="2" fill="#161b22"><title>2025-07-01: 0 commits</title></rect><rect x="179" y="79" width="11" height="11" rx="2" fill="#161b22"><title>2025-07-02: 0 commits</title></rect><rect x="179" y="92" width="11" height="11" rx="2" fill="#161b22"><title>2025-07-03: 0 commits</title></rect><rect x="179" y="105" width="11" height="11" rx="2" fill="#161b22"><title>2025-07-04: 0 commits</title></rect><rect x="179" y="118" width="11" height="11" rx="2" fill="#161b22"><title>2025-07-05: 0 commits</title></rect><rect x="192" y="40" width="11" height="11" rx="2" fill="#161b22"><title>2025-07-06: 0 commits</title></rect><rect x="192" y="53" width="11" height="11" rx="2" fill="#161b22"><title>2025-07-07: 0 commits</title></rect><rect x="192" y="66" width="11" height="11" rx="2" fill="#161b22"><title>2025-07-08: 0 commits</title></rect><rect x="192" y="79" width="11" height="11" rx="2" fill="#161b22"><title>2025-07-09: 0 commits</title></rect><rect x="192" y="92" width="11" height="11" rx="2" fill="#161b22"><title>2025-07-10: 0 commits</title></rect><rect x="192" y="105" width="11" height="11" rx="2" fill="#161b22"><title>2025-07-11: 0 commits</title></rect><rect x="192" y="118" width="11" height="11" rx="2" fill="#161b22"><title>2025-07-12: 0 commits</title></rect><rect x="205" y="40" width="11" height="11" rx="2" fill="#161b22"><title>2025-07-13: 0 commits</title></rect><rect x="205" y="53" width="11" height="11" rx="2" fill="#161b22"><title>2025-07-14: 0 commits</title></rect><rect x="205" y="66" width="11" height="11" rx="2" fill="#161b22"><title>2025-07-15: 0 commits</title></rect><rect x="205" y="79" width="11" height="11" rx="2" fill="#161b22"><title>2025-07-16: 0 commits</title></rect><rect x="205" y="92" width="11" height="11" rx="2" fill="#161b22"><title>2025-07-17: 0 commits</title></rect><rect x="205" y="105" width="11" height="11" rx="2" fill="#161b22"><title>2025-07-18: 0 commits</title></rect><rect x="205" y="118" width="11" height="11" rx="2" fill="#161b22"><title>2025-07-19: 0 commits</title></rect><rect x="218" y="40" width="11" height="11" rx="2" fill="#161b22"><title>2025-07-20: 0 commits</title></rect><rect x="218" y="53" width="11" height="11" rx="2" fill="#161b22"><title>2025-07-21: 0 commits</title></rect><rect x="218" y="66" width="11" height="11" rx="2" fill="#161b22"><title>2025-07-22: 0 commits</title></rect><rect x="218" y="79" width="11" height="11" rx="2" fill="#161b22"><title>2025-07-23: 0 commits</title></rect><rect x="218" y="92" width="11" height="11" rx="2" fill="#161b22"><title>2025-07-24: 0 commits</title></rect><rect x="218" y="105" width="11" height="11" rx="2" fill="#161b22"><title>2025-07-25: 0 commits</title></rect><rect x="218" y="118" width="11" height="11" rx="2" fill="#161b22"><title>2025-07-26: 0 commits</title></rect><rect x="231" y="40" width="11" height="11" rx="2" fill="#161b22"><title>2025-07-27: 0 commits</title></rect><rect x="231" y="53" width="11" height="11" rx="2" fill="#161b22"><title>2025-07-28: 0 commits</title></rect><rect x="231" y="66" width="11" height="11" rx="2" fill="#161b22"><title>2025-07-29: 0 commits</title></rect><rect x="231" y="79" width="11" height="11" rx="2" fill="#161b22"><title>2025-07-30: 0 commits</title></rect><rect x="231" y="92" width="11" height="11" rx="2" fill="#161b22"><title>2025-07-31: 0 commits</title></rect><rect x="231" y="105" width="11" height="11" rx="2" fill="#161b22"><title>2025-08-01: 0 commits</title></rect><rect x="231" y="118" width="11" height="11" rx="2" fill="#161b22"><title>2025-08-02: 0 commits</title></rect><rect x="244" y="40" width="11" height="11" rx="2" fill="#161b22"><title>2025-08-03: 0 commits</title></rect><rect x="244" y="53" width="11" height="11" rx="2" fill="#161b22"><title>2025-08-04: 0 commits</title></rect><rect x="244" y="66" width="11" height="11" rx="2" fill="#161b22"><title>2025-08-05: 0 commits</title></rect><rect x="244" y="79" width="11" height="11" rx="2" fill="#161b22"><title>2025-08-06: 0 commits</title></rect><rect x="244" y="92" width="11" height="11" rx="2" fill="#161b22"><title>2025-08-07: 0 commits</title></rect><rect x="244" y="105" width="11" height="11" rx="2" fill="#161b22"><title>2025-08-08: 0 commits</title></rect><rect x="244" y="118" width="11" height="11" rx="2" fill="#161b22"><title>2025-08-09: 0 commits</title></rect><rect x="257" y="40" width="11" height="11" rx="2" fill="#161b22"><title>2025-08-10: 0 commits</title></rect><rect x="257" y="53" width="11" height="11" rx="2" fill="#161b22"><title>2025-08-11: 0 commits</title></rect><rect x="257" y="66" width="11" height="11" rx="2" fill="#161b22"><title>2025-08-12: 0 commits</title></rect><rect x="257" y="79" width="11" height="11" rx="2" fill="#161b22"><title>2025-08-13: 0 commits</title></rect><rect x="257" y="92" width="11" height="11" rx="2" fill="#161b22"><title>2025-08-14: 0 commits</title></rect><rect x="257" y="105" width="11" height="11" rx="2" fill="#161b22"><title>2025-08-15: 0 commits</title></rect><rect x="257" y="118" width="11" height="11" rx="2" fill="#161b22"><title>2025-08-16: 0 commits</title></rect><rect x="270" y="40" width="11" height="11" rx="2" fill="#161b22"><title>2025-08-17: 0 commits</title></rect><rect x="270" y="53" width="11" height="11" rx="2" fill="#161b22"><title>2025-08-18: 0 commits</title></rect><rect x="270" y="66" width="11" height="11" rx="2" fill="#161b22"><title>2025-08-19: 0 commits</title></rect><rect x="270" y="79" width="11" height="11" rx="2" fill="#161b22"><title>2025-08-20: 0 commits</title></rect><rect x="270" y="92" width="11" height="11" rx="2" fill="#161b22"><title>2025-08-21: 0 commits</title></rect><rect x="270" y="105" width="11" height="11" rx="2" fill="#161b22"><title>2025-08-22: 0 commits</title></rect><rect x="270" y="118" width="11" height="11" rx="2" fill="#161b22"><title>2025-08-23: 0 commits</title></rect><rect x="283" y="40" width="11" height="11" rx="2" fill="#161b22"><title>2025-08-24: 0 commits</title></rect><rect x="283" y="53" width="11" height="11" rx="2" fill="#161b22"><title>2025-08-25: 0 commits</title></rect><rect x="283" y="66" width="11" height="11" rx="2" fill="#161b22"><title>2025-08-26: 0 commits</title></rect><rect x="283" y="79" width="11" height="11" rx="2" fill="#161b22"><title>2025-08-27: 0 commits</title></rect><rect x="283" y="92" width="11" height="11" rx="2" fill="#161b22"><title>2025-08-28: 0 commits</title></rect><rect x="283" y="105" width="11" height="11" rx="2" fill="#161b22"><title>2025-08-29: 0 commits</title></rect><rect x="283" y="118" width="11" height="11" rx="2" fill="#161b22"><title>2025-08-30: 0 commits</title></rect><rect x="296" y="40" width="11" height="11" rx="2" fill="#161b22"><title>2025-08-31: 0 commits</title></rect><rect x="296" y="53" width="11" height="11" rx="2" fill="#161b22"><title>2025-09-01: 0 commits</title></rect><rect x="296" y="66" width="11" height="11" rx="2" fill="#161b22"><title>2025-09-02: 0 commits</title></rect><rect x="296" y="79" width="11" height="11" rx="2" fill="#161b22"><title>2025-09-03: 0 commits</title></rect><rect x="296" y="92" width="11" height="11" rx="2" fill="#161b22"><title>2025-09-04: 0 commits</title></rect><rect x="296" y="105" width="11" height="11" rx="2" fill="#161b22"><title>2025-09-05: 0 commits</title></rect><rect x="296" y="118" width="11" height="11" rx="2" fill="#161b22"><title>2025-09-06: 0 commits</title></rect><rect x="309" y="40" width="11" height="11" rx="2" fill="#161b22"><title>2025-09-07: 0 commits</title></rect><rect x="309" y="53" width="11" height="11" rx="2" fill="#161b22"><title>2025-09-08: 0 commits</title></rect><rect x="309" y="66" width="11" height="11" rx="2" fill="#161b22"><title>2025-09-09: 0 commits</title></rect><rect x="309" y="79" width="11" height="11" rx="2" fill="#161b22"><title>2025-09-10: 0 commits</title></rect><rect x="309" y="92" width="11" height="11" rx="2" fill="#161b22"><title>2025-09-11: 0 commits</title></rect><rect x="309" y="105" width="11" height="11" rx="2" fill="#161b22"><title>2025-09-12: 0 commits</title></rect><rect x="309" y="118" width="11" height="11" rx="2" fill="#161b22"><title>2025-09-13: 0 commits</title></rect><rect x="322" y="40" width="11" height="11" rx="2" fill="#161b22"><title>2025-09-14: 0 commits</title></rect><rect x="322" y="53" width="11" height="11" rx="2" fill="#161b22"><title>2025-09-15: 0 commits</title></rect><rect x="322" y="66" width="11" height="11" rx="2" fill="#161b22"><title>2025-09-16: 0 commits</title></rect><rect x="322" y="79" width="11" height="11" rx="2" fill="#161b22"><title>2025-09-17: 0 commits</title></rect><rect x="322" y="92" width="11" height="11" rx="2" fill="#161b22"><title>2025-09-18: 0 commits</title></rect><rect x="322" y="105" width="11" height="11" rx="2" fill="#161b22"><title>2025-09-19: 0 commits</title></rect><rect x="322" y="118" width="11" height="11" rx="2" fill="#161b22"><title>2025-09-20: 0 commits</title></rect><rect x="335" y="40" width="11" height="11" rx="2" fill="#161b22"><title>2025-09-21: 0 commits</title></rect><rect x="335" y="53" width="11" height="11" rx="2" fill="#161b22"><title>2025-09-22: 0 commits</title></rect><rect x="335" y="66" width="11" height="11" rx="2" fill="#161b22"><title>2025-09-23: 0 commits</title></rect><rect x="335" y="79" width="11" height="11" rx="2" fill="#161b22"><title>2025-09-24: 0 commits</title></rect><rect x="335" y="92" width="11" height="11" rx="2" fill="#161b22"><title>2025-09-25: 0 commits</title></rect><rect x="335" y="105" width="11" height="11" rx="2" fill="#161b22"><title>2025-09-26: 0 commits</title></rect><rect x="335" y="118" width="11" height="11" rx="2" fill="#161b22"><title>2025-09-27: 0 commits</title></rect><rect x="348" y="40" width="11" height="11" rx="2" fill="#161b22"><title>2025-09-28: 0 commits</title></rect><rect x="348" y="53" width="11" height="11" rx="2" fill="#161b22"><title>2025-09-29: 0 commits</title></rect><rect x="348" y="66" width="11" height="11" rx="2" fill="#161b22"><title>2025-09-30: 0 commits</title></rect><rect x="348" y="79" width="11" height="11" rx="2" fill="#161b22"><title>2025-10-01: 0 commits</title></rect><rect x="348" y="92" width="11" height="11" rx="2" fill="#161b22"><title>2025-10-02: 0 commits</title></rect><rect x="348" y="105" width="11" height="11" rx="2" fill="#161b22"><title>2025-10-03: 0 commits</title></rect><rect x="348" y="118" width="11" height="11" rx="2" fill="#161b22"><title>2025-10-04: 0 commits</title></rect><rect x="361" y="40" width="11" height="11" rx="2" fill="#161b22"><title>2025-10-05: 0 commits</title></rect><rect x="361" y="53" width="11" height="11" rx="2" fill="#161b22"><title>2025-10-06: 0 commits</title></rect><rect x="361" y="66" width="11" height="11" rx="2" fill="#161b22"><title>2025-10-07: 0 commits</title></rect><rect x="361" y="79" width="11" height="11" rx="2" fill="#161b22"><title>2025-10-08: 0 commits</title></rect><rect x="361" y="92" width="11" height="11" rx="2" fill="#161b22"><title>2025-10-09: 0 commits</title></rect><rect x="361" y="105" width="11" height="11" rx="2" fill="#161b22"><title>2025-10-10: 0 commits</title></rect><rect x="361" y="118" width="11" height="11" rx="2" fill="#161b22"><title>2025-10-11: 0 commits</title></rect><rect x="374" y="40" width="11" height="11" rx="2" fill="#161b22"><title>2025-10-12: 0 commits</title></rect><rect x="374" y="53" width="11" height="11" rx="2" fill="#161b22"><title>2025-10-13: 0 commits</title></rect><rect x="374" y="66" width="11" height="11" rx="2" fill="#161b22"><title>2025-10-14: 0 commits</title></rect><rect x="374" y="79" width="11" height="11" rx="2" fill="#161b22"><title>2025-10-15: 0 commits</title></rect><rect x="374" y="92" width="11" height="11" rx="2" fill="#161b22"><title>2025-10-16: 0 commits</title></rect><rect x="374" y="105" width="11" height="11" rx="2" fill="#161b22"><title>2025-10-17: 0 commits</title></rect><rect x="374" y="118" width="11" height="11" rx="2" fill="#161b22"><title>2025-10-18: 0 commits</title></rect><rect x="387" y="40" width="11" height="11" rx="2" fill="#161b22"><title>2025-10-19: 0 commits</title></rect><rect x="387" y="53" width="11" height="11" rx="2" fill="#161b22"><title>2025-10-20: 0 commits</title></rect><rect x="387" y="66" width="11" height="11" rx="2" fill="#161b22"><title>2025-10-21: 0 commits</title></rect><rect x="387" y="79" width="11" height="11" rx="2" fill="#161b22"><title>2025-10-22: 0 commits</title></rect><rect x="387" y="92" width="11" height="11" rx="2" fill="#161b22"><title>2025-10-23: 0 commits</title></rect><rect x="387" y="105" width="11" height="11" rx="2" fill="#161b22"><title>2025-10-24: 0 commits</title></rect><rect x="387" y="118" width="11" height="11" rx="2" fill="#161b22"><title>2025-10-25: 0 commits</title></rect><rect x="400" y="40" width="11" height="11" rx="2" fill="#161b22"><title>2025-10-26: 0 commits</title></rect><rect x="400" y="53" width="11" height="11" rx="2" fill="#161b22"><title>2025-10-27: 0 commits</title></rect><rect x="400" y="66" width="11" height="11" rx="2" fill="#161b22"><title>2025-10-28: 0 commits</title></rect><rect x="400" y="79" width="11" height="11" rx="2" fill="#161b22"><title>2025-10-29: 0 commits</title></rect><rect x="400" y="92" width="11" height="11" rx="2" fill="#161b22"><title>2025-10-30: 0 commits</title></rect><rect x="400" y="105" width="11" height="11" rx="2" fill="#161b22"><title>2025-10-31: 0 commits</title></rect><rect x="400" y="118" width="11" height="11" rx="2" fill="#161b22"><title>2025-11-01: 0 commits</title></rect><rect x="413" y="40" width="11" height="11" rx="2" fill="#161b22"><title>2025-11-02: 0 commits</title></rect><rect x="413" y="53" width="11" height="11" rx="2" fill="#161b22"><title>2025-11-03: 0 commits</title></rect><rect x="413" y="66" width="11" height="11" rx="2" fill="#161b22"><title>2025-11-04: 0 commits</title></rect><rect x="413" y="79" width="11" height="11" rx="2" fill="#161b22"><title>2025-11-05: 0 commits</title></rect><rect x="413" y="92" width="11" height="11" rx="2" fill="#161b22"><title>2025-11-06: 0 commits</title></rect><rect x="413" y="105" width="11" height="11" rx="2" fill="#161b22"><title>2025-11-07: 0 commits</title></rect><rect x="413" y="118" width="11" height="11" rx="2" fill="#161b22"><title>2025-11-08: 0 commits</title></rect><rect x="426" y="40" width="11" height="11" rx="2" fill="#161b22"><title>2025-11-09: 0 commits</title></rect><rect x="426" y="53" width="11" height="11" rx="2" fill="#161b22"><title>2025-11-10: 0 commits</title></rect><rect x="426" y="66" width="11" height="11" rx="2" fill="#161b22"><title>2025-11-11: 0 commits</title></rect><rect x="426" y="79" width="11" height="11" rx="2" fill="#161b22"><title>2025-11-12: 0 commits</title></rect><rect x="426" y="92" width="11" height="11" rx="2" fill="#161b22"><title>2025-11-13: 0 commits</title></rect><rect x="426" y="105" width="11" height="11" rx="2" fill="#161b22"><title>2025-11-14: 0 commits</title></rect><rect x="426" y="118" width="11" height="11" rx="2" fill="#161b22"><title>2025-11-15: 0 commits</title></rect><rect x="439" y="40" width="11" height="11" rx="2" fill="#161b22"><title>2025-11-16: 0 commits</title></rect><rect x="439" y="53" width="11" height="11" rx="2" fill="#161b22"><title>2025-11-17: 0 commits</title></rect><rect x="439" y="66" width="11" height="11" rx="2" fill="#161b22"><title>2025-11-18: 0 commits</title></rect><rect x="439" y="79" width="11" height="11" rx="2" fill="#161b22"><title>2025-11-19: 0 commits</title></rect><rect x="439" y="92" width="11" height="11" rx="2" fill="#161b22"><title>2025-11-20: 0 commits</title></rect><rect x="439" y="105" width="11" height="11" rx="2" fill="#161b22"><title>2025-11-21: 0 commits</title></rect><rect x="439" y="118" width="11" height="11" rx="2" fill="#161b22"><title>2025-11-22: 0 commits</title></rect><rect x="452" y="40" width="11" height="11" rx="2" fill="#161b22"><title>2025-11-23: 0 commits</title></rect><rect x="452" y="53" width="11" height="11" rx="2" fill="#161b22"><title>2025-11-24: 0 commits</title></rect><rect x="452" y="66" width="11" height="11" rx="2" fill="#161b22"><title>2025-11-25: 0 commits</title></rect><rect x="452" y="79" width="11" height="11" rx="2" fill="#161b22"><title>2025-11-26: 0 commits</title></rect><rect x="452" y="92" width="11" height="11" rx="2" fill="#161b22"><title>2025-11-27: 0 commits</title></rect><rect x="452" y="105" width="11" height="11" rx="2" fill="#161b22"><title>2025-11-28: 0 commits</title></rect><rect x="452" y="118" width="11" height="11" rx="2" fill="#161b22"><title>2025-11-29: 0 commits</title></rect><rect x="465" y="40" width="11" height="11" rx="2" fill="#161b22"><title>2025-11-30: 0 commits</title></rect><rect x="465" y="53" width="11" height="11" rx="2" fill="#161b22"><title>2025-12-01: 0 commits</title></rect><rect x="465" y="66" width="11" height="11" rx="2" fill="#161b22"><title>2025-12-02: 0 commits</title></rect><rect x="465" y="79" width="11" height="11" rx="2" fill="#161b22"><title>2025-12-03: 0 commits</title></rect><rect x="465" y="92" width="11" height="11" rx="2" fill="#161b22"><title>2025-12-04: 0 commits</title></rect><rect x="465" y="105" width="11" height="11" rx="2" fill="#161b22"><title>2025-12-05: 0 commits</title></rect><rect x="465" y="118" width="11" height="11" rx="2" fill="#161b22"><title>2025-12-06: 0 commits</title></rect><rect x="478" y="40" width="11" height="11" rx="2" fill="#161b22"><title>2025-12-07: 0 commits</title></rect><rect x="478" y="53" width="11" height="11" rx="2" fill="#161b22"><title>2025-12-08: 0 commits</title></rect><rect x="478" y="66" width="11" height="11" rx="2" fill="#161b22"><title>2025-12-09: 0 commits</title></rect><rect x="478" y="79" width="11" height="11" rx="2" fill="#161b22"><title>2025-12-10: 0 commits</title></rect><rect x="478" y="92" width="11" height="11" rx="2" fill="#161b22"><title>2025-12-11: 0 commits</title></rect><rect x="478" y="105" width="11" height="11" rx="2" fill="#161b22"><title>2025-12-12: 0 commits</title></rect><rect x="478" y="118" width="11" height="11" rx="2" fill="#161b22"><title>2025-12-13: 0 commits</title></rect><rect x="491" y="40" width="11" height="11" rx="2" fill="#161b22"><title>2025-12-14: 0 commits</title></rect><rect x="491" y="53" width="11" height="11" rx="2" fill="#161b22"><title>2025-12-15: 0 commits</title></rect><rect x="491" y="66" width="11" height="11" rx="2" fill="#161b22"><title>2025-12-16: 0 commits</title></rect><rect x="491" y="79" width="11" height="11" rx="2" fill="#161b22"><title>2025-12-17: 0 commits</title></rect><rect x="491" y="92" width="11" height="11" rx="2" fill="#161b22"><title>2025-12-18: 0 commits</title></rect><rect x="491" y="105" width="11" height="11" rx="2" fill="#161b22"><title>2025-12-19: 0 commits</title></rect><rect x="491" y="118" width="11" height="11" rx="2" fill="#161b22"><title>2025-12-20: 0 commits</title></rect><rect x="504" y="40" width="11" height="11" rx="2" fill="#161b22"><title>2025-12-21: 0 commits</title></rect><rect x="504" y="53" width="11" height="11" rx="2" fill="#161b22"><title>2025-12-22: 0 commits</title></rect><rect x="504" y="66" width="11" height="11" rx="2" fill="#161b22"><title>2025-12-23: 0 commits</title></rect><rect x="504" y="79" width="11" height="11" rx="2" fill="#161b22"><title>2025-12-24: 0 commits</title></rect><rect x="504" y="92" width="11" height="11" rx="2" fill="#161b22"><title>2025-12-25: 0 commits</title></rect><rect x="504" y="105" width="11" height="11" rx="2" fill="#161b22"><title>2025-12-26: 0 commits</title></rect><rect x="504" y="118" width="11" height="11" rx="2" fill="#161b22"><title>2025-12-27: 0 commits</title></rect><rect x="517" y="40" width="11" height="11" rx="2" fill="#161b22"><title>2025-12-28: 0 commits</title></rect><rect x="517" y="53" width="11" height="11" rx="2" fill="#161b22"><title>2025-12-29: 0 commits</title></rect><rect x="517" y="66" width="11" height="11" rx="2" fill="#161b22"><title>2025-12-30: 0 commits</title></rect><rect x="517" y="79" width="11" height="11" rx="2" fill="#161b22"><title>2025-12-31: 0 commits</title></rect><rect x="517" y="92" width="11" height="11" rx="2" fill="#161b22"><title>2026-01-01: 0 commits</title></rect><rect x="517" y="105" width="11" height="11" rx="2" fill="#161b22"><title>2026-01-02: 0 commits</title></rect><rect x="517" y="118" width="11" height="11" rx="2" fill="#161b22"><title>2026-01-03: 0 commits</title></rect><rect x="530" y="40" width="11" height="11" rx="2" fill="#161b22"><title>2026-01-04: 0 commits</title></rect><rect x="530" y="53" width="11" height="11" rx="2" fill="#161b22"><title>2026-01-05: 0 commits</title></rect><rect x="530" y="66" width="11" height="11" rx="2" fill="#161b22"><title>2026-01-06: 0 commits</title></rect><rect x="530" y="79" width="11" height="11" rx="2" fill="#161b22"><title>2026-01-07: 0 commits</title></rect><rect x="530" y="92" width="11" height="11" rx="2" fill="#161b22"><title>2026-01-08: 0 commits</title></rect><rect x="530" y="105" width="11" height="11" rx="2" fill="#161b22"><title>2026-01-09: 0 commits</title></rect><rect x="530" y="118" width="11" height="11" rx="2" fill="#161b22"><title>2026-01-10: 0 commits</title></rect><rect x="543" y="40" width="11" height="11" rx="2" fill="#161b22"><title>2026-01-11: 0 commits</title></rect><rect x="543" y="53" width="11" height="11" rx="2" fill="#161b22"><title>2026-01-12: 0 commits</title></rect><rect x="543" y="66" width="11" height="11" rx="2" fill="#161b22"><title>2026-01-13: 0 commits</title></rect><rect x="543" y="79" width="11" height="11" rx="2" fill="#161b22"><title>2026-01-14: 0 commits</title></rect><rect x="543" y="92" width="11" height="11" rx="2" fill="#161b22"><title>2026-01-15: 0 commits</title></rect><rect x="543" y="105" width="11" height="11" rx="2" fill="#161b22"><title>2026-01-16: 0 commits</title></rect><rect x="543" y="118" width="11" height="11" rx="2" fill="#161b22"><title>2026-01-17: 0 commits</title></rect><rect x="556" y="40" width="11" height="11" rx="2" fill="#161b22"><title>2026-01-18: 0 commits</title></rect><rect x="556" y="53" width="11" height="11" rx="2" fill="#161b22"><title>2026-01-19: 0 commits</title></rect><rect x="556" y="66" width="11" height="11" rx="2" fill="#161b22"><title>2026-01-20: 0 commits</title></rect><rect x="556" y="79" width="11" height="11" rx="2" fill="#161b22"><title>2026-01-21: 0 commits</title></rect><rect x="556" y="92" width="11" height="11" rx="2" fill="#161b22"><title>2026-01-22: 0 commits</title></rect><rect x="556" y="105" width="11" height="11" rx="2" fill="#161b22"><title>2026-01-23: 0 commits</title></rect><rect x="556" y="118" width="11" height="11" rx="2" fill="#161b22"><title>2026-01-24: 0 commits</title></rect><rect x="569" y="40" width="11" height="11" rx="2" fill="#161b22"><title>2026-01-25: 0 commits</title></rect><rect x="569" y="53" width="11" height="11" rx="2" fill="#161b22"><title>2026-01-26: 0 commits</title></rect><rect x="569" y="66" width="11" height="11" rx="2" fill="#161b22"><title>2026-01-27: 0 commits</title></rect><rect x="569" y="79" width="11" height="11" rx="2" fill="#161b22"><title>2026-01-28: 0 commits</title></rect><rect x="569" y="92" width="11" height="11" rx="2" fill="#161b22"><title>2026-01-29: 0 commits</title></rect><rect x="569" y="105" width="11" height="11" rx="2" fill="#161b22"><title>2026-01-30: 0 commits</title></rect><rect x="569" y="118" width="11" height="11" rx="2" fill="#161b22"><title>2026-01-31: 0 commits</title></rect><rect x="582" y="40" width="11" height="11" rx="2" fill="#161b22"><title>2026-02-01: 0 commits</title></rect><rect x="582" y="53" width="11" height="11" rx="2" fill="#161b22"><title>2026-02-02: 0 commits</title></rect><rect x="582" y="66" width="11" height="11" rx="2" fill="#161b22"><title>2026-02-03: 0 commits</title></rect><rect x="582" y="79" width="11" height="11" rx="2" fill="#161b22"><title>2026-02-04: 0 commits</title></rect><rect x="582" y="92" width="11" height="11" rx="2" fill="#161b22"><title>2026-02-05: 0 commits</title></rect><rect x="582" y="105" width="11" height="11" rx="2" fill="#161b22"><title>2026-02-06: 0 commits</title></rect><rect x="582" y="118" width="11" height="11" rx="2" fill="#161b22"><title>2026-02-07: 0 commits</title></rect><rect x="595" y="40" width="11" height="11" rx="2" fill="#161b22"><title>2026-02-08: 0 commits</title></rect><rect x="595" y="53" width="11" height="11" rx="2" fill="#161b22"><title>2026-02-09: 0 commits</title></rect><rect x="595" y="66" width="11" height="11" rx="2" fill="#161b22"><title>2026-02-10: 0 commits</title></rect><rect x="595" y="79" width="11" height="11" rx="2" fill="#161b22"><title>2026-02-11: 0 commits</title></rect><rect x="595" y="92" width="11" height="11" rx="2" fill="#161b22"><title>2026-02-12: 0 commits</title></rect><rect x="595" y="105" width="11" height="11" rx="2" fill="#161b22"><title>2026-02-13: 0 commits</title></rect><rect x="595" y="118" width="11" height="11" rx="2" fill="#161b22"><title>2026-02-14: 0 commits</title></rect><rect x="608" y="40" width="11" height="11" rx="2" fill="#161b22"><title>2026-02-15: 0 commits</title></rect><rect x="608" y="53" width="11" height="11" rx="2" fill="#161b22"><title>2026-02-16: 0 commits</title></rect><rect x="608" y="66" width="11" height="11" rx="2" fill="#161b22"><title>2026-02-17: 0 commits</title></rect><rect x="608" y="79" width="11" height="11" rx="2" fill="#161b22"><title>2026-02-18: 0 commits</title></rect><rect x="608" y="92" width="11" height="11" rx="2" fill="#161b22"><title>2026-02-19: 0 commits</title></rect><rect x="608" y="105" width="11" height="11" rx="2" fill="#161b22"><title>2026-02-20: 0 commits</title></rect><rect x="608" y="118" width="11" height="11" rx="2" fill="#161b22"><title>2026-02-21: 0 commits</title></rect><rect x="621" y="40" width="11" height="11" rx="2" fill="#161b22"><title>2026-02-22: 0 commits</title></rect><rect x="621" y="53" width="11" height="11" rx="2" fill="#161b22"><title>2026-02-23: 0 commits</title></rect><rect x="621" y="66" width="11" height="11" rx="2" fill="#161b22"><title>2026-02-24: 0 commits</title></rect><rect x="621" y="79" width="11" height="11" rx="2" fill="#161b22"><title>2026-02-25: 0 commits</title></rect><rect x="621" y="92" width="11" height="11" rx="2" fill="#161b22"><title>2026-02-26: 0 commits</title></rect><rect x="621" y="105" width="11" height="11" rx="2" fill="#161b22"><title>2026-02-27: 0 commits</title></rect><rect x="621" y="118" width="11" height="11" rx="2" fill="#161b22"><title>2026-02-28: 0 commits</title></rect><rect x="634" y="40" width="11" height="11" rx="2" fill="#161b22"><title>2026-03-01: 0 commits</title></rect><rect x="634" y="53" width="11" height="11" rx="2" fill="#161b22"><title>2026-03-02: 0 commits</title></rect><rect x="634" y="66" width="11" height="11" rx="2" fill="#161b22"><title>2026-03-03: 0 commits</title></rect><rect x="634" y="79" width="11" height="11" rx="2" fill="#161b22"><title>2026-03-04: 0 commits</title></rect><rect x="634" y="92" width="11" height="11" rx="2" fill="#161b22"><title>2026-03-05: 0 commits</title></rect><rect x="634" y="105" width="11" height="11" rx="2" fill="#161b22"><title>2026-03-06: 0 commits</title></rect><rect x="634" y="118" width="11" height="11" rx="2" fill="#161b22"><title>2026-03-07: 0 commits</title></rect><rect x="647" y="40" width="11" height="11" rx="2" fill="#161b22"><title>2026-03-08: 0 commits</title></rect><rect x="647" y="53" width="11" height="11" rx="2" fill="#161b22"><title>2026-03-09: 0 commits</title></rect><rect x="647" y="66" width="11" height="11" rx="2" fill="#161b22"><title>2026-03-10: 0 commits</title></rect><rect x="647" y="79" width="11" height="11" rx="2" fill="#161b22"><title>2026-03-11: 0 commits</title></rect><rect x="647" y="92" width="11" height="11" rx="2" fill="#161b22"><title>2026-03-12: 0 commits</title></rect><rect x="647" y="105" width="11" height="11" rx="2" fill="#161b22"><title>2026-03-13: 0 commits</title></rect><rect x="647" y="118" width="11" height="11" rx="2" fill="#161b22"><title>2026-03-14: 0 commits</title></rect><rect x="660" y="40" width="11" height="11" rx="2" fill="#161b22"><title>2026-03-15: 0 commits</title></rect><rect x="660" y="53" width="11" height="11" rx="2" fill="#161b22"><title>2026-03-16: 0 commits</title></rect><rect x="660" y="66" width="11" height="11" rx="2" fill="#161b22"><title>2026-03-17: 0 commits</title></rect><rect x="660" y="79" width="11" height="11" rx="2" fill="#161b22"><title>2026-03-18: 0 commits</title></rect><rect x="660" y="92" width="11" height="11" rx="2" fill="#161b22"><title>2026-03-19: 0 commits</title></rect><rect x="660" y="105" width="11" height="11" rx="2" fill="#161b22"><title>2026-03-20: 0 commits</title></rect><rect x="660" y="118" width="11" height="11" rx="2" fill="#161b22"><title>2026-03-21: 0 commits</title></rect><rect x="673" y="40" width="11" height="11" rx="2" fill="#161b22"><title>2026-03-22: 0 commits</title></rect><rect x="673" y="53" width="11" height="11" rx="2" fill="#161b22"><title>2026-03-23: 0 commits</title></rect><rect x="673" y="66" width="11" height="11" rx="2" fill="#161b22"><title>2026-03-24: 0 commits</title></rect><rect x="673" y="79" width="11" height="11" rx="2" fill="#161b22"><title>2026-03-25: 0 commits</title></rect><rect x="673" y="92" width="11" height="11" rx="2" fill="#161b22"><title>2026-03-26: 0 commits</title></rect><rect x="673" y="105" width="11" height="11" rx="2" fill="#161b22"><title>2026-03-27: 0 commits</title></rect><rect x="673" y="118" width="11" height="11" rx="2" fill="#161b22"><title>2026-03-28: 0 commits</title></rect><rect x="686" y="40" width="11" height="11" rx="2" fill="#161b22"><title>2026-03-29: 0 commits</title></rect><rect x="686" y="53" width="11" height="11" rx="2" fill="#161b22"><title>2026-03-30: 0 commits</title></rect><rect x="686" y="66" width="11" height="11" rx="2" fill="#161b22"><title>2026-03-31: 0 commits</title></rect><rect x="686" y="79" width="11" height="11" rx="2" fill="#161b22"><title>2026-04-01: 0 commits</title></rect><rect x="686" y="92" width="11" height="11" rx="2" fill="#161b22"><title>2026-04-02: 0 commits</title></rect><rect x="686" y="105" width="11" height="11" rx="2" fill="#161b22"><title>2026-04-03: 0 commits</title></rect><rect x="686" y="118" width="11" height="11" rx="2" fill="#161b22"><title>2026-04-04: 0 commits</title></rect><rect x="699" y="40" width="11" height="11" rx="2" fill="#161b22"><title>2026-04-05: 0 commits</title></rect><rect x="699" y="53" width="11" height="11" rx="2" fill="#161b22"><title>2026-04-06: 0 commits</title></rect><rect x="699" y="66" width="11" height="11" rx="2" fill="#161b22"><title>2026-04-07: 0 commits</title></rect><rect x="699" y="79" width="11" height="11" rx="2" fill="#161b22"><title>2026-04-08: 0 commits</title></rect><rect x="699" y="92" width="11" height="11" rx="2" fill="#161b22"><title>2026-04-09: 0 commits</title></rect><rect x="699" y="105" width="11" height="11" rx="2" fill="#161b22"><title>2026-04-10: 0 commits</title></rect><rect x="699" y="118" width="11" height="11" rx="2" fill="#161b22"><title>2026-04-11: 0 commits</title></rect><rect x="712" y="40" width="11" height="11" rx="2" fill="#161b22"><title>2026-04-12: 0 commits</title></rect><rect x="712" y="53" width="11" height="11" rx="2" fill="#39d353"><title>2026-04-13: 65 commits</title></rect><rect x="712" y="66" width="11" height="11" rx="2" fill="#39d353"><title>2026-04-14: 15 commits</title></rect><rect x="712" y="79" width="11" height="11" rx="2" fill="#39d353"><title>2026-04-15: 32 commits</title></rect><rect x="712" y="92" width="11" height="11" rx="2" fill="#26a641"><title>2026-04-16: 5 commits</title></rect><rect x="712" y="105" width="11" height="11" rx="2" fill="#39d353"><title>2026-04-17: 16 commits</title></rect><rect x="712" y="118" width="11" height="11" rx="2" fill="#26a641"><title>2026-04-18: 6 commits</title></rect>
  
    <text x="616" y="151" fill="#8b949e" font-size="9" font-family="monospace" text-anchor="end">Less</text>
    <rect x="620" y="140" width="11" height="11" rx="2" fill="#161b22"/><rect x="633" y="140" width="11" height="11" rx="2" fill="#0e4429"/><rect x="646" y="140" width="11" height="11" rx="2" fill="#006d32"/><rect x="659" y="140" width="11" height="11" rx="2" fill="#26a641"/><rect x="672" y="140" width="11" height="11" rx="2" fill="#39d353"/>
    <text x="687" y="151" fill="#8b949e" font-size="9" font-family="monospace">More</text>
</svg>